<svg width="17" height="17" viewBox="0 0 17 17" fill="none" xmlns="http://www.w3.org/2000/svg">
<path d="M7.00067 9.14537C7.32743 9.5822 7.74431 9.94366 8.22305 10.2052C8.70178 10.4668 9.23117 10.6223 9.7753 10.6613C10.3194 10.7002 10.8656 10.6217 11.3767 10.4311C11.8878 10.2404 12.352 9.94205 12.7376 9.55624L15.0202 7.27363C15.7132 6.55612 16.0967 5.59513 16.088 4.59765C16.0794 3.60016 15.6793 2.64598 14.9739 1.94062C14.2685 1.23527 13.3144 0.835167 12.3169 0.826499C11.3194 0.817831 10.3584 1.20129 9.64089 1.89428L8.33219 3.19537" stroke="black" stroke-width="1.52174" stroke-linecap="round" stroke-linejoin="round"/>
<path d="M10.0442 7.62365C9.7174 7.18681 9.30051 6.82536 8.82178 6.5638C8.34305 6.30225 7.81366 6.14671 7.26953 6.10774C6.7254 6.06877 6.17925 6.14728 5.66813 6.33794C5.15701 6.52861 4.69287 6.82696 4.3072 7.21278L2.02459 9.49539C1.3316 10.2129 0.948141 11.1739 0.956809 12.1714C0.965477 13.1689 1.36558 14.123 2.07093 14.8284C2.77629 15.5338 3.73047 15.9338 4.72796 15.9425C5.72544 15.9512 6.68643 15.5677 7.40394 14.8747L8.70502 13.5736" stroke="black" stroke-width="1.52174" stroke-linecap="round" stroke-linejoin="round"/>
</svg>
