<svg width="109" height="20" viewBox="0 0 109 20" fill="none" xmlns="http://www.w3.org/2000/svg">
<path d="M0.919469 19C0.823469 19 0.775469 18.952 0.775469 18.856V1.24C0.775469 1.144 0.823469 1.096 0.919469 1.096H6.55947C7.66347 1.096 8.62347 1.32 9.43947 1.768C10.2715 2.2 10.9035 2.816 11.3355 3.616C11.7835 4.4 12.0075 5.296 12.0075 6.304C12.0075 7.312 11.7835 8.216 11.3355 9.016C10.8875 9.8 10.2555 10.408 9.43947 10.84C8.63947 11.272 7.71147 11.488 6.65547 11.488H4.03947V18.856C4.03947 18.952 3.99147 19 3.89547 19H0.919469ZM6.41547 8.656C7.98347 8.656 8.76747 7.856 8.76747 6.256C8.76747 4.704 8.02347 3.928 6.53547 3.928H4.03947V8.656H6.41547ZM14.5813 19C14.4853 19 14.4373 18.952 14.4373 18.856V1.24C14.4373 1.144 14.4853 1.096 14.5813 1.096H17.5573C17.6533 1.096 17.7013 1.144 17.7013 1.24V18.856C17.7013 18.952 17.6533 19 17.5573 19H14.5813ZM30.5311 19.192C28.5471 19.192 26.8111 18.824 25.3231 18.088C23.8351 17.336 22.6831 16.28 21.8671 14.92C21.0511 13.544 20.6431 11.944 20.6431 10.12C20.6431 8.168 21.0831 6.496 21.9631 5.104C22.8431 3.696 24.0511 2.632 25.5871 1.912C27.1391 1.192 28.8991 0.831999 30.8671 0.831999C31.9231 0.831999 32.9871 0.991999 34.0591 1.312C35.1471 1.632 36.0031 2.048 36.6271 2.56C36.6911 2.592 36.7231 2.632 36.7231 2.68C36.7391 2.728 36.7391 2.784 36.7231 2.848L36.2191 6.016C36.2031 6.08 36.1791 6.12 36.1471 6.136C36.1151 6.152 36.0831 6.136 36.0511 6.088C34.7711 4.632 32.9151 3.904 30.4831 3.904C29.2031 3.904 28.0671 4.152 27.0751 4.648C26.0831 5.144 25.3071 5.848 24.7471 6.76C24.1871 7.672 23.9071 8.728 23.9071 9.928C23.9071 11.176 24.1711 12.272 24.6991 13.216C25.2431 14.16 26.0111 14.888 27.0031 15.4C27.9951 15.912 29.1471 16.168 30.4591 16.168C31.8991 16.168 33.0831 15.984 34.0111 15.616C34.9391 15.232 35.7951 14.6 36.5791 13.72C36.6271 13.656 36.6671 13.64 36.6991 13.672C36.7471 13.688 36.7631 13.728 36.7471 13.792L36.4111 17.32C36.4111 17.416 36.3711 17.488 36.2911 17.536C34.8031 18.64 32.8831 19.192 30.5311 19.192ZM49.2422 19C49.1622 19 49.0982 18.968 49.0502 18.904L42.5942 10.816V18.856C42.5942 18.952 42.5462 19 42.4502 19H39.4742C39.3782 19 39.3302 18.952 39.3302 18.856V1.24C39.3302 1.144 39.3782 1.096 39.4742 1.096H42.4502C42.5462 1.096 42.5942 1.144 42.5942 1.24V8.68L48.6662 1.192C48.7302 1.128 48.7942 1.096 48.8582 1.096H52.6262C52.6902 1.096 52.7222 1.112 52.7222 1.144C52.7382 1.176 52.7302 1.216 52.6982 1.264L45.4262 9.76L53.6342 18.832C53.6662 18.88 53.6742 18.92 53.6582 18.952C53.6582 18.984 53.6262 19 53.5622 19H49.2422ZM59.422 18.976C59.326 18.976 59.278 18.928 59.278 18.832V4L57.382 4.024C56.246 4.024 55.038 4.04 53.758 4.072C53.662 4.072 53.622 4.024 53.638 3.928L53.998 1.24C53.998 1.208 54.014 1.176 54.046 1.144C54.078 1.112 54.118 1.096 54.166 1.096H67.654C67.686 1.096 67.718 1.112 67.75 1.144C67.798 1.16 67.822 1.192 67.822 1.24L68.158 3.928C68.158 4.024 68.126 4.072 68.062 4.072C66.366 4.04 64.526 4.024 62.542 4.024V18.832C62.542 18.928 62.494 18.976 62.398 18.976H59.422ZM70.6829 19C70.5869 19 70.5389 18.952 70.5389 18.856V1.24C70.5389 1.144 70.5869 1.096 70.6829 1.096H73.6589C73.7549 1.096 73.8029 1.144 73.8029 1.24V18.856C73.8029 18.952 73.7549 19 73.6589 19H70.6829ZM77.5367 19C77.4407 19 77.3927 18.952 77.3927 18.856V1.24C77.3927 1.144 77.4407 1.096 77.5367 1.096H80.7047C80.7847 1.096 80.8487 1.128 80.8967 1.192L85.7927 8.368C85.8247 8.4 85.8567 8.424 85.8887 8.44C85.9367 8.44 85.9687 8.416 85.9847 8.368L90.4727 1.216C90.5207 1.136 90.5847 1.096 90.6647 1.096H94.0487C94.1447 1.096 94.1927 1.144 94.1927 1.24V18.856C94.1927 18.952 94.1447 19 94.0487 19H91.0727C90.9767 19 90.9287 18.952 90.9287 18.856V6.232L85.9847 13.216C85.9207 13.28 85.8727 13.312 85.8407 13.312C85.7927 13.312 85.7367 13.28 85.6727 13.216L80.6567 5.992V18.856C80.6567 18.952 80.6087 19 80.5127 19H77.5367ZM97.6851 19C97.5891 19 97.5411 18.952 97.5411 18.856V1.24C97.5411 1.144 97.5891 1.096 97.6851 1.096H108.173C108.285 1.096 108.325 1.144 108.293 1.24L107.909 3.88C107.909 3.944 107.869 3.976 107.789 3.976H100.805V7.816H106.661C106.757 7.816 106.805 7.864 106.805 7.96V10.528C106.805 10.624 106.757 10.672 106.661 10.672H100.805V16.12H107.573C107.653 16.12 107.693 16.152 107.693 16.216L108.101 18.856C108.133 18.952 108.085 19 107.957 19H97.6851Z" fill="black"/>
</svg>
